<svg width="24" height="24" viewBox="0 0 24 24" fill="none" xmlns="http://www.w3.org/2000/svg">
<path d="M18.3059 9.81055C18.3059 9.81055 17.8362 15.636 17.5637 18.0899C17.434 19.2619 16.71 19.9487 15.5242 19.9703C13.2675 20.011 11.0082 20.0136 8.75241 19.966C7.61153 19.9427 6.89967 19.2472 6.77252 18.096C6.49833 15.6205 6.03125 9.81055 6.03125 9.81055" stroke="white" stroke-width="1.2" stroke-linecap="round" stroke-linejoin="round"/>
<path d="M19.5019 7.01842H4.83398" stroke="white" stroke-width="1.2" stroke-linecap="round" stroke-linejoin="round"/>
<path d="M16.6756 7.01784C15.9966 7.01784 15.4119 6.53779 15.2787 5.87263L15.0685 4.82084C14.9388 4.3356 14.4994 4 13.9986 4H10.3372C9.83639 4 9.39699 4.3356 9.26725 4.82084L9.05706 5.87263C8.92386 6.53779 8.33915 7.01784 7.66016 7.01784" stroke="white" stroke-width="1.2" stroke-linecap="round" stroke-linejoin="round"/>
</svg>
