<svg width="32" height="32" viewBox="0 0 32 32" fill="none" xmlns="http://www.w3.org/2000/svg">
<rect width="32" height="32" rx="16" fill="#2A2931"/>
<path d="M22.9308 9.46302C21.6561 8.87812 20.2892 8.44719 18.8599 8.20038C18.8339 8.19561 18.8079 8.20752 18.7945 8.23133C18.6187 8.544 18.4239 8.95192 18.2876 9.27254C16.7503 9.0424 15.221 9.0424 13.7153 9.27254C13.5789 8.94479 13.3771 8.544 13.2005 8.23133C13.1871 8.20831 13.1611 8.19641 13.135 8.20038C11.7066 8.4464 10.3396 8.87733 9.06411 9.46302C9.05307 9.46778 9.04361 9.47572 9.03732 9.48603C6.44449 13.3597 5.73421 17.1381 6.08265 20.8697C6.08423 20.8879 6.09447 20.9054 6.10867 20.9165C7.81934 22.1728 9.47642 22.9354 11.1027 23.441C11.1288 23.4489 11.1563 23.4394 11.1729 23.4179C11.5576 22.8926 11.9005 22.3387 12.1946 21.7561C12.2119 21.722 12.1954 21.6815 12.1599 21.668C11.6159 21.4617 11.098 21.2101 10.5998 20.9244C10.5604 20.9014 10.5572 20.845 10.5935 20.8181C10.6983 20.7395 10.8032 20.6578 10.9033 20.5752C10.9214 20.5601 10.9466 20.557 10.9679 20.5665C14.2411 22.0609 17.7846 22.0609 21.0191 20.5665C21.0404 20.5562 21.0657 20.5594 21.0846 20.5744C21.1847 20.657 21.2895 20.7395 21.3952 20.8181C21.4314 20.845 21.4291 20.9014 21.3897 20.9244C20.8914 21.2157 20.3735 21.4617 19.8288 21.6672C19.7933 21.6807 19.7775 21.722 19.7949 21.7561C20.0952 22.3378 20.4381 22.8918 20.8157 23.4172C20.8315 23.4394 20.8599 23.4489 20.8859 23.441C22.5201 22.9354 24.1772 22.1728 25.8879 20.9165C25.9028 20.9054 25.9123 20.8887 25.9139 20.8705C26.3309 16.5563 25.2154 12.8089 22.9568 9.48682C22.9513 9.47572 22.9419 9.46778 22.9308 9.46302ZM12.6834 18.5975C11.6979 18.5975 10.8859 17.6928 10.8859 16.5817C10.8859 15.4707 11.6822 14.566 12.6834 14.566C13.6924 14.566 14.4965 15.4786 14.4807 16.5817C14.4807 17.6928 13.6845 18.5975 12.6834 18.5975ZM19.329 18.5975C18.3435 18.5975 17.5316 17.6928 17.5316 16.5817C17.5316 15.4707 18.3278 14.566 19.329 14.566C20.338 14.566 21.1421 15.4786 21.1264 16.5817C21.1264 17.6928 20.338 18.5975 19.329 18.5975Z" fill="#E7E7E8"/>
</svg>
