<svg width="186" height="52" viewBox="0 0 186 52" fill="none" xmlns="http://www.w3.org/2000/svg">
<path fill-rule="evenodd" clip-rule="evenodd" d="M34.1542 36.2795L38.9079 28.0431C39.5781 26.8816 39.9431 25.5693 39.9688 24.2286C40.0384 20.5254 38.4984 17.7652 35.3486 15.9481C32.1791 14.1148 29.025 14.1867 25.8868 16.1636C24.7961 16.8516 23.8893 17.7948 23.2446 18.9117L18.9365 26.3771C18.0823 27.8572 18.589 29.7496 20.0685 30.6044C20.4203 30.8077 20.8087 30.9397 21.2116 30.9928C21.6145 31.0459 22.0238 31.0191 22.4163 30.9139C22.8088 30.8087 23.1768 30.6272 23.4991 30.3798C23.8214 30.1323 24.0918 29.8238 24.2948 29.4718L28.3843 22.3877C29.1935 21.0217 30.9502 20.5602 32.3264 21.3514C33.7027 22.1432 34.1876 23.8939 33.4149 25.2814L33.4091 25.2907L28.8083 33.1886C28.3968 33.895 28.2826 34.736 28.4909 35.5266C28.6992 36.3173 29.2129 36.9928 29.9192 37.4048L29.9293 37.4103C31.4085 38.2645 33.2995 37.7583 34.1542 36.2792V36.2795Z" fill="url(#paint0_linear_2_953)"/>
<path opacity="0.15" d="M27.5443 23.677C27.5443 23.7341 27.5397 23.7913 27.5356 23.8478L24.2893 29.4733C24.0861 29.8252 23.8157 30.1336 23.4933 30.3809C23.171 30.6282 22.8031 30.8097 22.4106 30.9148C22.0182 31.0199 21.6088 31.0468 21.206 30.9937C20.8032 30.9406 20.4148 30.8088 20.0629 30.6056C19.6966 30.3944 19.3776 30.1102 19.1256 29.7707C18.8735 29.4312 18.6939 29.0436 18.5977 28.6319L20.9078 24.6332C21.2915 23.9705 21.3975 23.1829 21.2027 22.4423L23.2431 18.9117C23.6968 18.1248 24.2821 17.4216 24.9738 16.8328C26.7946 18.5686 27.6516 20.8497 27.5449 23.677H27.5443Z" fill="#12111A"/>
<path fill-rule="evenodd" clip-rule="evenodd" d="M1.28985 33.1841L9.48156 18.9794C10.1521 17.8151 11.1075 16.8402 12.2581 16.1464C15.4246 14.2388 18.5819 14.1941 21.7303 16.0124C24.9012 17.8396 26.4166 20.6062 26.2771 24.312C26.2281 25.6038 25.8646 26.8642 25.2182 27.9838L20.426 36.2805C20.1545 36.7508 19.764 37.1414 19.2937 37.413C18.8234 37.6845 18.2899 37.8275 17.7468 37.8275C17.2037 37.8275 16.6702 37.6845 16.1999 37.413C15.7296 37.1414 15.3391 36.7508 15.0676 36.2805C14.7961 35.81 14.6531 35.2763 14.6531 34.733C14.6531 34.1898 14.7961 33.6561 15.0676 33.1856L19.6403 25.2682C19.8316 24.9374 19.9559 24.5721 20.006 24.1933C20.0561 23.8144 20.0311 23.4294 19.9324 23.0603C19.8336 22.6911 19.6632 22.345 19.4307 22.0417C19.1982 21.7384 18.9082 21.4839 18.5773 21.2927C17.1909 20.4922 15.4188 20.967 14.6183 22.3537L14.6143 22.3615L6.64126 36.275C6.43983 36.6264 6.17115 36.9347 5.85057 37.1823C5.52998 37.4298 5.16377 37.6118 4.77285 37.7179C4.38192 37.8239 3.97394 37.8519 3.5722 37.8002C3.17045 37.7486 2.78282 37.6183 2.43142 37.4169L2.42272 37.4119C2.07072 37.2088 1.76218 36.9382 1.51472 36.6158C1.26727 36.2934 1.08574 35.9254 0.980518 35.5329C0.875293 35.1403 0.848426 34.7308 0.901452 34.3279C0.954477 33.9249 1.08636 33.5364 1.28956 33.1844L1.28985 33.1841Z" fill="url(#paint1_linear_2_953)"/>
<path d="M178.159 20.9205C180.669 20.9205 182.724 21.6345 184.325 23.0624L182.443 25.2689C181.361 24.2741 179.955 23.7761 178.224 23.7761C177.185 23.7547 176.358 23.9116 175.741 24.2469C175.125 24.5821 174.816 25.0636 174.816 25.6909C174.838 26.8375 175.995 27.519 178.289 27.7354C179.197 27.8218 179.982 27.9355 180.642 28.0762C181.302 28.2166 182.005 28.4547 182.752 28.79C183.498 29.1252 184.071 29.6282 184.471 30.299C184.872 30.9696 185.072 31.7918 185.072 32.7652C185.05 34.2797 184.423 35.5019 183.189 36.4323C181.956 37.3625 180.312 37.8277 178.256 37.8277C175.141 37.8277 172.707 36.8433 170.954 34.8746L172.706 32.5056C174.091 34.0416 175.963 34.8314 178.322 34.8746C179.23 34.8746 180.02 34.7014 180.691 34.3554C181.361 34.0091 181.707 33.49 181.729 32.7979C181.751 32.1053 181.453 31.5972 180.836 31.2724C180.22 30.9481 179.284 30.721 178.029 30.5911C173.702 30.1801 171.528 28.5791 171.506 25.7881C171.506 24.1657 172.182 22.9487 173.534 22.1375C174.886 21.3262 176.428 20.9205 178.159 20.9205ZM113.832 20.9854C114.978 20.9854 116.05 21.245 117.045 21.7642C118.04 22.2833 118.787 22.9867 119.284 23.8736L119.381 21.3425H122.627V37.3407H119.446L119.284 34.7449C118.787 35.7183 118.013 36.4648 116.964 36.984C115.914 37.5032 114.849 37.7627 113.767 37.7627C111.365 37.7845 109.396 37.049 107.86 35.5562C106.324 34.0634 105.556 31.9864 105.556 29.3254C105.556 26.7296 106.34 24.6903 107.909 23.2085C109.477 21.7265 111.452 20.9854 113.832 20.9854ZM85.3843 20.9205C88.0671 20.9205 90.1554 21.7427 91.6482 23.3869C93.141 25.0311 93.7361 27.4326 93.433 30.5911H80.4511C80.6025 31.8025 81.149 32.7762 82.0901 33.5117C83.0313 34.2472 84.2268 34.615 85.6764 34.615C86.5418 34.615 87.4128 34.4584 88.289 34.1446C89.1652 33.8307 89.8416 33.4143 90.3175 32.8951L92.4919 35.0045C91.6914 35.8697 90.669 36.5405 89.4248 37.0165C88.1805 37.4921 86.9096 37.7302 85.6114 37.7302C82.9936 37.7302 80.9001 36.9622 79.3313 35.4262C77.7628 33.8902 76.9786 31.835 76.9786 29.2607C76.9786 26.8157 77.7573 24.8145 79.3151 23.257C80.8731 21.6995 82.8961 20.9205 85.3843 20.9205ZM169.436 14.6575V37.341H166.288L166.093 34.8096C164.925 36.7137 163.075 37.6656 160.544 37.6656C158.164 37.6656 156.206 36.919 154.669 35.4265C153.133 33.9334 152.365 31.8997 152.365 29.3254C152.365 26.6861 153.117 24.6361 154.621 23.1761C156.124 21.7157 158.077 20.9854 160.479 20.9854C161.539 20.9854 162.615 21.2398 163.708 21.7482C164.801 22.2564 165.596 22.9542 166.093 23.8411V14.6575H169.436ZM100.241 16.7341V21.3747H104.914V24.2631H100.209V31.889C100.209 33.6414 100.977 34.5175 102.513 34.5175C103.14 34.5175 103.822 34.3337 104.558 33.9659L105.531 36.8216C104.449 37.2975 103.378 37.5356 102.318 37.5356C100.566 37.5791 99.2186 37.1191 98.2775 36.1565C97.3363 35.1936 96.8656 33.7713 96.8656 31.889V24.2631H93.7825V21.375H96.8656V17.0912L100.241 16.7344V16.7341ZM55.7933 14.6578L63.2901 25.302L70.7547 14.6578H74.9738V37.3738H71.3391V19.9471L63.6147 30.6885H62.8359L55.2089 19.9471V37.3735H51.5742V14.6575H55.7933V14.6578ZM142.896 14.625L153.087 37.341H149.225L147.05 32.5705H134.749L132.608 37.341H128.745L138.936 14.625H142.896H142.896ZM114.091 24.036C112.62 24.036 111.387 24.5175 110.391 25.4801C109.396 26.4427 108.899 27.7247 108.899 29.3254C108.899 30.9263 109.396 32.2135 110.391 33.1872C111.387 34.1608 112.62 34.6475 114.091 34.6475C115.043 34.6475 115.892 34.4529 116.639 34.0634C117.385 33.6738 117.948 33.1654 118.327 32.5381C118.705 31.9107 118.986 31.2239 119.17 30.4774C119.354 29.7311 119.354 28.9793 119.17 28.2221C118.986 27.4651 118.705 26.7725 118.326 26.1454C117.948 25.5178 117.385 25.0094 116.639 24.6199C115.892 24.2306 115.043 24.036 114.091 24.036ZM160.771 24.1332C159.321 24.1332 158.115 24.5984 157.152 25.5285C156.189 26.459 155.708 27.7247 155.708 29.3254C155.708 30.9049 156.189 32.1706 157.152 33.1222C158.115 34.0741 159.321 34.55 160.771 34.55C162.199 34.55 163.405 34.0634 164.389 33.0897C165.374 32.1164 165.866 30.8614 165.866 29.3254C165.866 27.8111 165.374 26.5671 164.389 25.5935C163.405 24.6201 162.199 24.1332 160.771 24.1332ZM140.916 18.4543L136.113 29.2607H145.72L140.917 18.454L140.916 18.4543ZM85.4821 23.9061C84.2271 23.9061 83.1505 24.2414 82.2525 24.9122C81.3549 25.5828 80.776 26.5347 80.5164 27.7679H90.2203C90.1339 26.5347 89.6635 25.5828 88.8085 24.9122C87.954 24.2414 86.8449 23.9061 85.4818 23.9061H85.4821Z" fill="white"/>
<defs>
<linearGradient id="paint0_linear_2_953" x1="17.5696" y1="36.2984" x2="40.3559" y2="20.3853" gradientUnits="userSpaceOnUse">
<stop stop-color="#0B3ACA"/>
<stop offset="1" stop-color="#3888FF"/>
</linearGradient>
<linearGradient id="paint1_linear_2_953" x1="4.10193" y1="36.3353" x2="23.0333" y2="17.4752" gradientUnits="userSpaceOnUse">
<stop stop-color="#0F15B5"/>
<stop offset="1" stop-color="#066EE6"/>
</linearGradient>
</defs>
</svg>
