<svg width="32" height="32" viewBox="0 0 32 32" fill="none" xmlns="http://www.w3.org/2000/svg">
<path fill-rule="evenodd" clip-rule="evenodd" d="M24.828 22.493L27.9459 17.7412C28.3855 17.0711 28.6249 16.314 28.6418 15.5405C28.6875 13.4041 27.6773 11.8116 25.6114 10.7633C23.5324 9.70565 21.4636 9.74715 19.4052 10.8877C18.6898 11.2846 18.095 11.8287 17.6722 12.4731L14.8464 16.7801C14.2862 17.6339 14.6185 18.7258 15.5889 19.2189C15.8197 19.3362 16.0745 19.4123 16.3387 19.443C16.6029 19.4736 16.8715 19.4581 17.1289 19.3975C17.3864 19.3368 17.6277 19.2321 17.8391 19.0893C18.0505 18.9465 18.2279 18.7685 18.361 18.5655L21.0434 14.4785C21.5741 13.6904 22.7264 13.4242 23.6291 13.8806C24.5318 14.3374 24.8498 15.3474 24.343 16.1479L24.3392 16.1533L21.3215 20.7098C21.0516 21.1173 20.9767 21.6025 21.1133 22.0586C21.2499 22.5148 21.5869 22.9045 22.0501 23.1422L22.0568 23.1454C23.027 23.6381 24.2673 23.3462 24.828 22.4928V22.493Z" fill="url(#paint0_linear_267_3018)"/>
<path opacity="0.15" d="M20.4932 15.222C20.4932 15.255 20.4902 15.288 20.4875 15.3206L18.3582 18.5661C18.225 18.7691 18.0476 18.947 17.8361 19.0897C17.6247 19.2324 17.3834 19.337 17.126 19.3977C16.8685 19.4583 16.6001 19.4738 16.3359 19.4432C16.0716 19.4126 15.8169 19.3365 15.5861 19.2193C15.3458 19.0974 15.1366 18.9335 14.9713 18.7376C14.806 18.5418 14.6881 18.3182 14.625 18.0806L16.1402 15.7737C16.3919 15.3914 16.4615 14.937 16.3337 14.5097L17.672 12.4728C17.9696 12.0188 18.3535 11.6131 18.8072 11.2734C20.0015 12.2749 20.5636 13.5909 20.4936 15.222H20.4932Z" fill="#12111A"/>
<path fill-rule="evenodd" clip-rule="evenodd" d="M3.27211 20.7069L8.64516 12.5118C9.08498 11.8401 9.71163 11.2777 10.4663 10.8774C12.5433 9.77689 14.6142 9.75112 16.6793 10.8001C18.7591 11.8543 19.7531 13.4504 19.6616 15.5883C19.6294 16.3336 19.391 17.0608 18.9671 17.7067L15.8238 22.4932C15.6457 22.7646 15.3895 22.9899 15.0811 23.1466C14.7726 23.3033 14.4227 23.3857 14.0664 23.3857C13.7102 23.3857 13.3603 23.3033 13.0518 23.1466C12.7434 22.9899 12.4872 22.7646 12.3091 22.4932C12.131 22.2218 12.0373 21.9139 12.0373 21.6005C12.0373 21.2871 12.131 20.9792 12.3091 20.7077L15.3084 16.14C15.4339 15.9491 15.5154 15.7384 15.5483 15.5199C15.5811 15.3013 15.5647 15.0792 15.5 14.8662C15.4352 14.6532 15.3234 14.4535 15.1709 14.2785C15.0184 14.1036 14.8282 13.9568 14.6112 13.8465C13.7019 13.3846 12.5395 13.6585 12.0145 14.4585L12.0118 14.4631L6.78217 22.4901C6.65005 22.6928 6.47382 22.8707 6.26354 23.0135C6.05327 23.1563 5.81307 23.2613 5.55665 23.3225C5.30024 23.3837 5.03264 23.3998 4.76913 23.37C4.50562 23.3402 4.25136 23.2651 4.02088 23.1488L4.01517 23.146C3.78429 23.0288 3.58191 22.8727 3.4196 22.6867C3.25729 22.5007 3.13823 22.2884 3.06921 22.0619C3.00019 21.8354 2.98257 21.5992 3.01735 21.3667C3.05213 21.1343 3.13863 20.9101 3.27192 20.707L3.27211 20.7069Z" fill="url(#paint1_linear_267_3018)"/>
<defs>
<linearGradient id="paint0_linear_267_3018" x1="13.9498" y1="22.5039" x2="27.5876" y2="11.6758" gradientUnits="userSpaceOnUse">
<stop stop-color="#0B3ACA"/>
<stop offset="1" stop-color="#3888FF"/>
</linearGradient>
<linearGradient id="paint1_linear_267_3018" x1="5.11659" y1="22.5248" x2="15.9544" y2="10.2495" gradientUnits="userSpaceOnUse">
<stop stop-color="#0F15B5"/>
<stop offset="1" stop-color="#066EE6"/>
</linearGradient>
</defs>
</svg>
