<svg width="24" height="24" viewBox="0 0 24 24" fill="none" xmlns="http://www.w3.org/2000/svg">
<path d="M6 4.5C6.73028 3.29117 8.01535 2.552 9.69043 2.552H17.398C20.092 2.552 21.7682 4.45372 21.7682 7.145V14.407C21.7682 16.8199 20.4208 18.5981 18.2 18.9402" stroke="#E7E7E8" stroke-width="1.2" stroke-linecap="round" stroke-linejoin="round"/>
<path d="M21.7676 13.4241C20.8818 12.6532 20.1109 11.7255 19.095 11.1133C18.8681 10.9768 18.7293 11.0431 18.5 11" stroke="#E7E7E8" stroke-width="1.2" stroke-linecap="round" stroke-linejoin="round"/>
<path fill-rule="evenodd" clip-rule="evenodd" d="M14.0778 4.552H6.37021C3.68339 4.552 2 6.45372 2 9.145V16.407C2 19.0983 3.67626 21 6.37021 21H14.0769C16.7717 21 18.448 19.0983 18.448 16.407V9.145C18.448 6.45372 16.7717 4.552 14.0778 4.552Z" stroke="#E7E7E8" stroke-width="1.2" stroke-linecap="round" stroke-linejoin="round"/>
<path fill-rule="evenodd" clip-rule="evenodd" d="M9.08612 9.93034C9.08612 10.8384 8.34913 11.5754 7.44105 11.5754C6.53386 11.5754 5.79688 10.8384 5.79688 9.93034C5.79688 9.02226 6.53386 8.28528 7.44105 8.28528C8.34913 8.28528 9.08612 9.02226 9.08612 9.93034Z" stroke="#E7E7E8" stroke-width="1.2" stroke-linecap="round" stroke-linejoin="round"/>
<path d="M18.4475 15.4241C17.5617 14.6533 16.7908 13.7256 15.7749 13.1134C14.7572 12.5011 13.6638 12.879 12.958 13.7924C12.2762 14.6756 11.8503 15.8635 10.821 16.4204C9.55288 17.1075 8.80787 15.9998 7.75008 15.556C6.5693 15.0614 5.6728 15.9508 4.98305 16.8054C4.29241 17.6609 3.59285 18.5075 2.89062 19.3541" stroke="#E7E7E8" stroke-width="1.2" stroke-linecap="round" stroke-linejoin="round"/>
</svg>
