<svg width="70" height="20" viewBox="0 0 70 20" fill="none" xmlns="http://www.w3.org/2000/svg">
<path d="M35.0422 4.10869V15.6137C35.0416 15.6571 35.0253 15.6986 34.9966 15.7293C34.968 15.76 34.9292 15.7775 34.8887 15.778H33.7711C33.5146 15.7783 33.2621 15.7096 33.0369 15.5782C32.8116 15.4469 32.6207 15.2572 32.4816 15.0264L27.4097 6.63322L27.5836 10.8254V15.6137C27.5831 15.6571 27.5668 15.6986 27.5381 15.7293C27.5094 15.76 27.4707 15.7775 27.4301 15.778H25.9523C25.9118 15.7775 25.8731 15.76 25.8444 15.7293C25.8157 15.6986 25.7994 15.6571 25.7988 15.6137V4.10869C25.7994 4.06528 25.8157 4.0238 25.8444 3.9931C25.8731 3.9624 25.9118 3.9449 25.9523 3.94434H27.0637C27.32 3.94448 27.5721 4.0131 27.7973 4.14398C28.0224 4.27486 28.2135 4.46384 28.3532 4.6938L33.4252 13.0738L33.2676 8.89696V4.10869C33.2676 4.0651 33.2838 4.0233 33.3126 3.99247C33.3414 3.96165 33.3804 3.94434 33.4211 3.94434H34.8989C34.9376 3.94762 34.9738 3.96631 35.0004 3.99673C35.0269 4.02714 35.0418 4.06709 35.0422 4.10869V4.10869Z" fill="white"/>
<path d="M50.1475 15.7782H48.5837C48.5593 15.7779 48.5352 15.7715 48.5136 15.7593C48.492 15.7471 48.4734 15.7295 48.4594 15.7081C48.4454 15.6867 48.4363 15.662 48.433 15.636C48.4297 15.6101 48.4323 15.5837 48.4404 15.5591L52.5831 4.10227C52.6009 4.0543 52.632 4.01338 52.6723 3.98513C52.7126 3.95688 52.7601 3.94268 52.8083 3.94449H54.7671C54.8135 3.94492 54.8587 3.96016 54.897 3.98827C54.9353 4.01637 54.9649 4.05607 54.982 4.10227L59.1124 15.5591C59.1206 15.5837 59.1231 15.6101 59.1198 15.636C59.1165 15.662 59.1075 15.6867 59.0935 15.7081C59.0795 15.7295 59.0609 15.7471 59.0392 15.7593C59.0176 15.7715 58.9936 15.7779 58.9692 15.7782H57.4054C57.3741 15.7783 57.3435 15.7684 57.3176 15.7496C57.2917 15.7309 57.2716 15.7042 57.2601 15.673L53.9218 6.24987C53.911 6.21814 53.8914 6.19073 53.8656 6.17135C53.8397 6.15198 53.809 6.14159 53.7775 6.14159C53.7459 6.14159 53.7152 6.15198 53.6893 6.17135C53.6635 6.19073 53.6439 6.21814 53.6332 6.24987L50.2948 15.673C50.2832 15.7045 50.2628 15.7315 50.2365 15.7502C50.2102 15.769 50.1791 15.7788 50.1475 15.7782V15.7782Z" fill="white"/>
<path d="M69.968 15.5129L66.861 11.2637C68.6151 10.9087 69.6406 9.64205 69.6406 7.69825C69.6406 5.46519 68.2835 3.94434 65.8826 3.94434H61.5496C61.4888 3.94434 61.4304 3.97019 61.3875 4.01622C61.3445 4.06225 61.3203 4.12468 61.3203 4.18978V4.18978C61.3203 4.39698 61.3584 4.60215 61.4325 4.79358C61.5066 4.98502 61.6151 5.15895 61.7519 5.30547C61.8888 5.45198 62.0513 5.56821 62.23 5.6475C62.4088 5.72679 62.6005 5.7676 62.794 5.7676H65.7025C67.1537 5.7676 67.8496 6.56309 67.8496 7.7114C67.8496 8.85971 67.1701 9.68369 65.7025 9.68369H61.5496C61.4886 9.68426 61.4303 9.71061 61.3873 9.75698C61.3444 9.80336 61.3203 9.86602 61.3203 9.93132V15.629C61.3203 15.6726 61.3365 15.7144 61.3653 15.7452C61.3941 15.7761 61.4331 15.7934 61.4738 15.7934H62.9516C62.9922 15.7928 63.0309 15.7753 63.0596 15.7446C63.0882 15.7139 63.1046 15.6724 63.1051 15.629V11.3667H64.8101L67.5057 15.1338C67.6501 15.3353 67.8361 15.4984 68.0492 15.6102C68.2622 15.722 68.4966 15.7794 68.7338 15.778H69.8555C69.8835 15.7764 69.9105 15.7666 69.9336 15.7496C69.9568 15.7327 69.9751 15.7093 69.9867 15.682C69.9983 15.6546 70.0027 15.6244 69.9994 15.5946C69.9961 15.5648 69.9853 15.5366 69.968 15.5129Z" fill="white"/>
<path d="M45.4736 3.94434H38.6168C38.5625 3.94434 38.5105 3.96742 38.4721 4.00852C38.4337 4.04962 38.4121 4.10536 38.4121 4.16348C38.4121 4.5895 38.5702 4.99807 38.8515 5.29932C39.1329 5.60056 39.5145 5.7698 39.9124 5.7698H45.4736C45.4938 5.77009 45.5139 5.76604 45.5327 5.75788C45.5514 5.74973 45.5684 5.73763 45.5827 5.72231C45.5971 5.70699 45.6084 5.68876 45.616 5.66868C45.6236 5.64861 45.6274 5.6271 45.6271 5.60544V4.10869C45.6271 4.0651 45.6109 4.0233 45.5821 3.99247C45.5533 3.96165 45.5143 3.94434 45.4736 3.94434ZM45.4736 13.9526H40.3566C40.316 13.952 40.2773 13.9345 40.2486 13.9038C40.2199 13.8731 40.2036 13.8316 40.2031 13.7882V10.821C40.2031 10.7774 40.2192 10.7356 40.248 10.7048C40.2768 10.674 40.3159 10.6567 40.3566 10.6567H45.0867C45.1275 10.6567 45.1665 10.6394 45.1953 10.6085C45.2241 10.5777 45.2402 10.5359 45.2402 10.4923V8.98462C45.2402 8.94103 45.2241 8.89922 45.1953 8.8684C45.1665 8.83758 45.1275 8.82026 45.0867 8.82026H38.6414C38.5804 8.82084 38.5221 8.84718 38.4791 8.89356C38.4362 8.93994 38.4121 9.00259 38.4121 9.06789V15.5216C38.4118 15.5541 38.4176 15.5862 38.429 15.6162C38.4404 15.6463 38.4572 15.6736 38.4785 15.6966C38.4998 15.7196 38.5252 15.7379 38.5532 15.7504C38.5811 15.7629 38.6111 15.7693 38.6414 15.7693H45.4736C45.5143 15.7693 45.5533 15.752 45.5821 15.7211C45.6109 15.6903 45.6271 15.6485 45.6271 15.6049V14.1082C45.6255 14.0659 45.6086 14.026 45.5799 13.997C45.5512 13.9679 45.5131 13.952 45.4736 13.9526Z" fill="white"/>
<path d="M14.7861 1.00152L10.934 7.12218C10.8716 7.21052 10.8427 7.32089 10.8532 7.43109C10.8637 7.54129 10.9128 7.64315 10.9906 7.71617C11.0684 7.7892 11.1692 7.82797 11.2726 7.8247C11.376 7.82142 11.4744 7.77634 11.548 7.69853L15.3387 4.19224C15.3606 4.17078 15.3878 4.15667 15.4171 4.15164C15.4464 4.14661 15.4764 4.1509 15.5034 4.16397C15.5305 4.17704 15.5533 4.19831 15.5691 4.22515C15.585 4.25199 15.5931 4.28322 15.5925 4.31496V15.3357C15.5922 15.3691 15.5824 15.4017 15.5643 15.429C15.5463 15.4563 15.5209 15.4771 15.4915 15.4885C15.4621 15.4999 15.4302 15.5015 15.4 15.493C15.3697 15.4845 15.3427 15.4663 15.3223 15.4408L3.86027 0.758275C3.67728 0.52256 3.44836 0.332551 3.18954 0.201569C2.93072 0.0705878 2.64828 0.00180443 2.36201 4.11358e-05H1.96288C1.44229 4.11358e-05 0.943026 0.221457 0.574915 0.615579C0.206803 1.0097 0 1.54425 0 2.10162V17.6213C0 18.1787 0.206803 18.7132 0.574915 19.1074C0.943026 19.5015 1.44229 19.7229 1.96288 19.7229V19.7229C2.29831 19.7228 2.62814 19.6308 2.92089 19.4554C3.21363 19.2801 3.45953 19.0274 3.63512 18.7214L7.4872 12.6007C7.54961 12.5124 7.57848 12.402 7.56797 12.2918C7.55747 12.1816 7.50838 12.0798 7.43058 12.0068C7.35278 11.9337 7.25204 11.895 7.14863 11.8982C7.04521 11.9015 6.94679 11.9466 6.87316 12.0244L3.08248 15.5307C3.06063 15.5521 3.03337 15.5663 3.00409 15.5713C2.97481 15.5763 2.9448 15.572 2.91777 15.559C2.89075 15.5459 2.8679 15.5246 2.85206 15.4978C2.83622 15.4709 2.82809 15.4397 2.82868 15.408V4.39824C2.82899 4.36478 2.83883 4.33221 2.85688 4.3049C2.87494 4.27759 2.90035 4.25683 2.92972 4.2454C2.95909 4.23396 2.99102 4.2324 3.02125 4.24091C3.05147 4.24943 3.07855 4.26762 3.09886 4.29305L14.5609 18.9756C14.7453 19.2092 14.9751 19.3969 15.2342 19.5256C15.4933 19.6543 15.7756 19.7209 16.0612 19.7207H16.4706C16.7284 19.7207 16.9836 19.6663 17.2218 19.5607C17.4599 19.4551 17.6763 19.3003 17.8586 19.1052C18.0408 18.91 18.1854 18.6783 18.2841 18.4234C18.3827 18.1684 18.4335 17.8951 18.4335 17.6191V2.10162C18.4335 1.82453 18.3823 1.55017 18.2829 1.29433C18.1835 1.0385 18.0378 0.806234 17.8542 0.610911C17.6707 0.415589 17.4528 0.261063 17.2133 0.156225C16.9737 0.0513872 16.7171 -0.0016925 16.4583 4.11358e-05V4.11358e-05C16.1229 8.42211e-05 15.7931 0.0921602 15.5003 0.267483C15.2076 0.442805 14.9617 0.695523 14.7861 1.00152Z" fill="white"/>
</svg>
