<svg width="56" height="56" viewBox="0 0 56 56" fill="none" xmlns="http://www.w3.org/2000/svg">
<circle cx="28" cy="28" r="28" fill="#636A77"/>
<circle cx="27.5788" cy="23.278" r="4.77803" stroke="white" stroke-width="1.5" stroke-linecap="round" stroke-linejoin="round"/>
<path fill-rule="evenodd" clip-rule="evenodd" d="M20 34.7016C19.9987 34.3657 20.0739 34.0339 20.2197 33.7313C20.6774 32.816 21.968 32.3308 23.0389 32.1112C23.8113 31.9463 24.5943 31.8362 25.3822 31.7816C26.8408 31.6535 28.3079 31.6535 29.7666 31.7816C30.5544 31.8369 31.3374 31.947 32.1099 32.1112C33.1808 32.3308 34.4714 32.7702 34.9291 33.7313C35.2224 34.3481 35.2224 35.0642 34.9291 35.681C34.4714 36.6421 33.1808 37.0814 32.1099 37.2919C31.3384 37.4636 30.5551 37.5768 29.7666 37.6306C28.5794 37.7313 27.3866 37.7496 26.1968 37.6855C25.9222 37.6855 25.6568 37.6855 25.3822 37.6306C24.5966 37.5775 23.8163 37.4642 23.0481 37.2919C21.968 37.0814 20.6865 36.6421 20.2197 35.681C20.0746 35.3749 19.9996 35.0403 20 34.7016Z" stroke="white" stroke-width="1.5" stroke-linecap="round" stroke-linejoin="round"/>
</svg>
