<svg width="24" height="24" viewBox="0 0 24 24" fill="none" xmlns="http://www.w3.org/2000/svg">
<path fill-rule="evenodd" clip-rule="evenodd" d="M20.8074 7.62361L20.185 6.54352C19.6584 5.6296 18.4914 5.31432 17.5763 5.83872V5.83872C17.1406 6.09534 16.6208 6.16815 16.1314 6.04109C15.6421 5.91402 15.2233 5.59752 14.9676 5.16137C14.803 4.88415 14.7146 4.56839 14.7113 4.24604V4.24604C14.7261 3.72922 14.5311 3.2284 14.1708 2.85767C13.8104 2.48694 13.3153 2.27786 12.7982 2.27808H11.5442C11.0377 2.27807 10.552 2.47991 10.1947 2.83895C9.83742 3.19798 9.63791 3.68459 9.64034 4.19112V4.19112C9.62533 5.23693 8.77321 6.07681 7.7273 6.0767C7.40494 6.07336 7.08919 5.98494 6.81197 5.82041V5.82041C5.89679 5.29601 4.72985 5.61129 4.20327 6.52522L3.53508 7.62361C3.00914 8.53639 3.32013 9.70261 4.23073 10.2323V10.2323C4.82263 10.574 5.18726 11.2056 5.18726 11.8891C5.18726 12.5725 4.82263 13.2041 4.23073 13.5458V13.5458C3.32129 14.0719 3.00996 15.2353 3.53508 16.1454V16.1454L4.16666 17.2346C4.41338 17.6798 4.82734 18.0083 5.31693 18.1474C5.80652 18.2866 6.33137 18.2249 6.77535 17.976V17.976C7.21181 17.7213 7.73192 17.6516 8.22007 17.7822C8.70822 17.9128 9.12397 18.233 9.3749 18.6717C9.53943 18.9489 9.62784 19.2646 9.63119 19.587V19.587C9.63119 20.6435 10.4877 21.5 11.5442 21.5H12.7982C13.8512 21.5001 14.7062 20.6491 14.7113 19.5962V19.5962C14.7088 19.088 14.9096 18.6 15.2689 18.2407C15.6282 17.8814 16.1162 17.6807 16.6243 17.6831C16.9459 17.6917 17.2604 17.7798 17.5397 17.9394V17.9394C18.4524 18.4653 19.6186 18.1544 20.1484 17.2438V17.2438L20.8074 16.1454C21.0625 15.7075 21.1325 15.186 21.0019 14.6964C20.8714 14.2067 20.551 13.7894 20.1117 13.5367V13.5367C19.6725 13.284 19.3521 12.8666 19.2215 12.3769C19.091 11.8873 19.161 11.3658 19.4161 10.928C19.582 10.6383 19.8221 10.3982 20.1117 10.2323V10.2323C21.0169 9.70289 21.3271 8.54349 20.8074 7.63277V7.63277V7.62361Z" stroke="#E7E7E8" stroke-width="1.5" stroke-linecap="round" stroke-linejoin="round"/>
<circle cx="12.1752" cy="11.8891" r="2.63616" stroke="#E7E7E8" stroke-width="1.5" stroke-linecap="round" stroke-linejoin="round"/>
</svg>
