<svg width="32" height="32" viewBox="0 0 32 32" fill="none" xmlns="http://www.w3.org/2000/svg">
<rect width="32" height="32" rx="16" fill="#2A2931"/>
<path fill-rule="evenodd" clip-rule="evenodd" d="M6.61649 14.8879C11.6273 12.6299 14.9686 11.1413 16.6404 10.4221C21.4138 8.36862 22.4057 8.0119 23.0522 8.00013C23.1944 7.99753 23.5123 8.03398 23.7182 8.20682C23.8921 8.35275 23.94 8.5499 23.9629 8.68826C23.9858 8.82663 24.0143 9.14183 23.9916 9.38811C23.7329 12.1992 22.6137 19.021 22.0442 22.1694C21.8033 23.5017 21.3289 23.9484 20.8696 23.9921C19.8714 24.0871 19.1134 23.3098 18.1467 22.6543C16.6339 21.6287 15.7792 20.9902 14.3108 19.9893C12.6137 18.8327 13.7139 18.1969 14.681 17.158C14.9341 16.8861 19.3321 12.7487 19.4172 12.3733C19.4278 12.3264 19.4377 12.1514 19.3372 12.059C19.2367 11.9666 19.0884 11.9982 18.9813 12.0234C18.8296 12.059 16.4129 13.7111 11.7311 16.9798C11.0451 17.467 10.4238 17.7044 9.8671 17.6919C9.25339 17.6782 8.07284 17.333 7.19523 17.038C6.1188 16.6761 5.26328 16.4847 5.33777 15.8701C5.37658 15.55 5.80281 15.2226 6.61649 14.8879Z" fill="#E7E7E8"/>
</svg>
