<svg id="Layer_1" data-name="Layer 1" xmlns="http://www.w3.org/2000/svg" viewBox="0 0 512 512"><defs><style>.cls-1{fill:#141f38;}</style></defs><title>video-glyph</title><path class="cls-1" d="M326.4,268.8H185.6a6.41,6.41,0,0,0-6.4,6.4V390.4a6.41,6.41,0,0,0,6.4,6.4H326.4a6.41,6.41,0,0,0,6.4-6.4V275.2A6.41,6.41,0,0,0,326.4,268.8Zm-48.09,69.33L239,357.76a6,6,0,0,1-8.63-5.33V313.17a6,6,0,0,1,8.63-5.33l39.28,19.63A6,6,0,0,1,278.31,338.13ZM307.34,0H115.2a64,64,0,0,0-64,64V448a64,64,0,0,0,64,64H396.8a64,64,0,0,0,64-64V153.6ZM358.4,390.4a32,32,0,0,1-32,32H185.6a32,32,0,0,1-32-32V275.2a32,32,0,0,1,32-32H326.4a32,32,0,0,1,32,32Zm0-224a64,64,0,0,1-64-64V25.6L435.2,166.4Z"/></svg>