<svg width="32" height="32" viewBox="0 0 32 32" fill="none" xmlns="http://www.w3.org/2000/svg">
<rect width="32" height="32" rx="16" fill="#1A1A1E"/>
<g clip-path="url(#clip0_21_543)">
<path d="M12.2918 24.125C19.8371 24.125 23.9652 17.8723 23.9652 12.4516C23.9652 12.2758 23.9613 12.0961 23.9535 11.9203C24.7566 11.3396 25.4496 10.6202 26 9.79608C25.2521 10.1288 24.458 10.3462 23.6449 10.4406C24.5011 9.92742 25.1421 9.12123 25.4492 8.17147C24.6438 8.6488 23.763 8.98551 22.8445 9.16718C22.2257 8.50963 21.4075 8.07426 20.5164 7.92838C19.6253 7.78249 18.711 7.93421 17.9148 8.36008C17.1186 8.78595 16.4848 9.46225 16.1115 10.2844C15.7382 11.1066 15.6462 12.0288 15.8496 12.9086C14.2187 12.8267 12.6233 12.4031 11.1667 11.6651C9.71002 10.9271 8.42474 9.8912 7.39414 8.6246C6.87033 9.5277 6.71005 10.5964 6.94586 11.6134C7.18167 12.6304 7.79589 13.5195 8.66367 14.1C8.01219 14.0793 7.37498 13.9039 6.80469 13.5883V13.6391C6.8041 14.5868 7.13175 15.5055 7.73192 16.239C8.3321 16.9725 9.16777 17.4755 10.0969 17.6625C9.49338 17.8276 8.85999 17.8517 8.2457 17.7328C8.50788 18.5479 9.01798 19.2607 9.70481 19.7719C10.3916 20.2831 11.2209 20.5672 12.077 20.5844C10.6237 21.7259 8.82848 22.3451 6.98047 22.3422C6.65274 22.3417 6.32533 22.3216 6 22.282C7.87738 23.4865 10.0613 24.1262 12.2918 24.125Z" fill="#E7E7E8"/>
</g>
<defs>
<clipPath id="clip0_21_543">
<rect width="20" height="20" fill="white" transform="translate(6 6)"/>
</clipPath>
</defs>
</svg>
